{
    "asset" : {
        "generator" : "Khronos glTF Blender I/O v1.8.19",
        "version" : "2.0"
    },
    "scene" : 0,
    "scenes" : [
        {
            "name" : "Scene",
            "nodes" : [
                0,
                1,
                2,
                3,
                4
            ]
        }
    ],
    "nodes" : [
        {
            "mesh" : 0,
            "name" : "gravle",
            "rotation" : [
                0.7071068286895752,
                0,
                0,
                0.7071067094802856
            ]
        },
        {
            "mesh" : 1,
            "name" : "vase",
            "rotation" : [
                0.7071068286895752,
                0,
                0,
                0.7071067094802856
            ]
        },
        {
            "mesh" : 2,
            "name" : "spines",
            "rotation" : [
                0.7071068286895752,
                0,
                0,
                0.7071067094802856
            ]
        },
        {
            "mesh" : 3,
            "name" : "areola",
            "rotation" : [
                0.7071068286895752,
                0,
                0,
                0.7071067094802856
            ]
        },
        {
            "mesh" : 4,
            "name" : "cactus",
            "rotation" : [
                0.7071068286895752,
                0,
                0,
                0.7071067094802856
            ]
        }
    ],
    "materials" : [
        {
            "doubleSided" : true,
            "name" : "default",
            "pbrMetallicRoughness" : {
                "baseColorFactor" : [
                    0.800000011920929,
                    0.800000011920929,
                    0.800000011920929,
                    1
                ],
                "metallicFactor" : 0,
                "roughnessFactor" : 0.5
            }
        }
    ],
    "meshes" : [
        {
            "name" : "gravle",
            "primitives" : [
                {
                    "attributes" : {
                        "POSITION" : 0,
                        "NORMAL" : 1
                    },
                    "indices" : 2,
                    "material" : 0
                }
            ]
        },
        {
            "name" : "vase",
            "primitives" : [
                {
                    "attributes" : {
                        "POSITION" : 3,
                        "NORMAL" : 4
                    },
                    "indices" : 5,
                    "material" : 0
                }
            ]
        },
        {
            "name" : "spines",
            "primitives" : [
                {
                    "attributes" : {
                        "POSITION" : 6,
                        "NORMAL" : 7
                    },
                    "indices" : 8,
                    "material" : 0
                }
            ]
        },
        {
            "name" : "areola",
            "primitives" : [
                {
                    "attributes" : {
                        "POSITION" : 9,
                        "NORMAL" : 10
                    },
                    "indices" : 11,
                    "material" : 0
                }
            ]
        },
        {
            "name" : "cactus",
            "primitives" : [
                {
                    "attributes" : {
                        "POSITION" : 12,
                        "NORMAL" : 13
                    },
                    "indices" : 14,
                    "material" : 0
                }
            ]
        }
    ],
    "accessors" : [
        {
            "bufferView" : 0,
            "componentType" : 5126,
            "count" : 64,
            "max" : [
                1.299704670906067,
                1.299704670906067,
                -0.37649187445640564
            ],
            "min" : [
                -1.299704670906067,
                -1.299704670906067,
                -1.0611268281936646
            ],
            "type" : "VEC3"
        },
        {
            "bufferView" : 1,
            "componentType" : 5126,
            "count" : 64,
            "type" : "VEC3"
        },
        {
            "bufferView" : 2,
            "componentType" : 5123,
            "count" : 372,
            "type" : "SCALAR"
        },
        {
            "bufferView" : 3,
            "componentType" : 5126,
            "count" : 512,
            "max" : [
                1.6419800519943237,
                1.6419800519943237,
                0.286190003156662
            ],
            "min" : [
                -1.6419800519943237,
                -1.6419800519943237,
                -1.1762371063232422
            ],
            "type" : "VEC3"
        },
        {
            "bufferView" : 4,
            "componentType" : 5126,
            "count" : 512,
            "type" : "VEC3"
        },
        {
            "bufferView" : 5,
            "componentType" : 5123,
            "count" : 3060,
            "type" : "SCALAR"
        },
        {
            "bufferView" : 6,
            "componentType" : 5126,
            "count" : 14128,
            "max" : [
                1.338788628578186,
                1.338788628578186,
                -1.0648075342178345
            ],
            "min" : [
                -1.338788628578186,
                -1.338788628578186,
                -5.17728328704834
            ],
            "type" : "VEC3"
        },
        {
            "bufferView" : 7,
            "componentType" : 5126,
            "count" : 14128,
            "type" : "VEC3"
        },
        {
            "bufferView" : 8,
            "componentType" : 5123,
            "count" : 82656,
            "type" : "SCALAR"
        },
        {
            "bufferView" : 9,
            "componentType" : 5126,
            "count" : 11968,
            "max" : [
                1.0173457860946655,
                1.0173457860946655,
                -0.9865094423294067
            ],
            "min" : [
                -1.0173457860946655,
                -1.0173457860946655,
                -4.812411785125732
            ],
            "type" : "VEC3"
        },
        {
            "bufferView" : 10,
            "componentType" : 5126,
            "count" : 11968,
            "type" : "VEC3"
        },
        {
            "bufferView" : 11,
            "componentType" : 5123,
            "count" : 70656,
            "type" : "SCALAR"
        },
        {
            "bufferView" : 12,
            "componentType" : 5126,
            "count" : 16418,
            "max" : [
                0.9962742924690247,
                0.9962742924690247,
                -1.013391375541687
            ],
            "min" : [
                -0.9962742924690247,
                -0.9962742924690247,
                -4.823459148406982
            ],
            "type" : "VEC3"
        },
        {
            "bufferView" : 13,
            "componentType" : 5126,
            "count" : 16418,
            "type" : "VEC3"
        },
        {
            "bufferView" : 14,
            "componentType" : 5123,
            "count" : 98496,
            "type" : "SCALAR"
        }
    ],
    "bufferViews" : [
        {
            "buffer" : 0,
            "byteLength" : 768,
            "byteOffset" : 0
        },
        {
            "buffer" : 0,
            "byteLength" : 768,
            "byteOffset" : 768
        },
        {
            "buffer" : 0,
            "byteLength" : 744,
            "byteOffset" : 1536
        },
        {
            "buffer" : 0,
            "byteLength" : 6144,
            "byteOffset" : 2280
        },
        {
            "buffer" : 0,
            "byteLength" : 6144,
            "byteOffset" : 8424
        },
        {
            "buffer" : 0,
            "byteLength" : 6120,
            "byteOffset" : 14568
        },
        {
            "buffer" : 0,
            "byteLength" : 169536,
            "byteOffset" : 20688
        },
        {
            "buffer" : 0,
            "byteLength" : 169536,
            "byteOffset" : 190224
        },
        {
            "buffer" : 0,
            "byteLength" : 165312,
            "byteOffset" : 359760
        },
        {
            "buffer" : 0,
            "byteLength" : 143616,
            "byteOffset" : 525072
        },
        {
            "buffer" : 0,
            "byteLength" : 143616,
            "byteOffset" : 668688
        },
        {
            "buffer" : 0,
            "byteLength" : 141312,
            "byteOffset" : 812304
        },
        {
            "buffer" : 0,
            "byteLength" : 197016,
            "byteOffset" : 953616
        },
        {
            "buffer" : 0,
            "byteLength" : 197016,
            "byteOffset" : 1150632
        },
        {
            "buffer" : 0,
            "byteLength" : 196992,
            "byteOffset" : 1347648
        }
    ],
    "buffers" : [
        {
            "byteLength" : 1544640,
            "uri" : "data:application/octet-stream;base64,"
        }
    ]
}
